<mxfile host="Electron" modified="2023-12-04T19:56:47.960Z" agent="Mozilla/5.0 (X11; Linux x86_64) AppleWebKit/537.36 (KHTML, like Gecko) draw.io/22.0.3 Chrome/114.0.5735.289 Electron/25.8.4 Safari/537.36" etag="ENmEzjH76io4lKiOxSBw" version="22.0.3" type="device">
  <diagram name="Page-1" id="_I850rHI3E-VFJFXn0Gx">
    <mxGraphModel dx="989" dy="534" grid="1" gridSize="10" guides="1" tooltips="1" connect="1" arrows="1" fold="1" page="1" pageScale="1" pageWidth="850" pageHeight="1100" math="0" shadow="0">
      <root>
        <mxCell id="0" />
        <mxCell id="1" parent="0" />
        <mxCell id="qk_mOwnxizorP-l7VWMu-1" value="Actor" style="shape=umlActor;verticalLabelPosition=bottom;verticalAlign=top;html=1;fillColor=#1ba1e2;fontColor=#ffffff;strokeColor=#006EAF;" vertex="1" parent="1">
          <mxGeometry x="80" y="110" width="30" height="60" as="geometry" />
        </mxCell>
        <mxCell id="qk_mOwnxizorP-l7VWMu-2" value="" style="html=1;points=[];perimeter=orthogonalPerimeter;fillColor=#1ba1e2;fontColor=#ffffff;strokeColor=#006EAF;" vertex="1" parent="1">
          <mxGeometry x="92.5" y="200" width="5" height="280" as="geometry" />
        </mxCell>
        <mxCell id="qk_mOwnxizorP-l7VWMu-3" value="" style="html=1;verticalAlign=bottom;labelBackgroundColor=none;endArrow=block;endFill=1;" edge="1" parent="1">
          <mxGeometry width="160" relative="1" as="geometry">
            <mxPoint x="97.5" y="220" as="sourcePoint" />
            <mxPoint x="257.5" y="220" as="targetPoint" />
          </mxGeometry>
        </mxCell>
        <mxCell id="qk_mOwnxizorP-l7VWMu-4" value="1: InvertSignStack() : void" style="text;html=1;strokeColor=none;fillColor=none;align=left;verticalAlign=middle;whiteSpace=wrap;rounded=0;" vertex="1" parent="1">
          <mxGeometry x="100" y="190" width="160" height="30" as="geometry" />
        </mxCell>
        <mxCell id="qk_mOwnxizorP-l7VWMu-5" value=":Controller" style="rounded=0;whiteSpace=wrap;html=1;fillColor=#1ba1e2;fontColor=#ffffff;strokeColor=#006EAF;" vertex="1" parent="1">
          <mxGeometry x="210" y="120" width="120" height="60" as="geometry" />
        </mxCell>
        <mxCell id="qk_mOwnxizorP-l7VWMu-6" value="" style="endArrow=none;dashed=1;html=1;startArrow=none;" edge="1" parent="1" source="qk_mOwnxizorP-l7VWMu-8">
          <mxGeometry width="50" height="50" relative="1" as="geometry">
            <mxPoint x="264.5" y="730" as="sourcePoint" />
            <mxPoint x="264.5" y="190" as="targetPoint" />
          </mxGeometry>
        </mxCell>
        <mxCell id="qk_mOwnxizorP-l7VWMu-7" value="" style="endArrow=none;dashed=1;html=1;" edge="1" parent="1" target="qk_mOwnxizorP-l7VWMu-8">
          <mxGeometry width="50" height="50" relative="1" as="geometry">
            <mxPoint x="263" y="540" as="sourcePoint" />
            <mxPoint x="264.5" y="190" as="targetPoint" />
          </mxGeometry>
        </mxCell>
        <mxCell id="qk_mOwnxizorP-l7VWMu-8" value="" style="html=1;points=[];perimeter=orthogonalPerimeter;fillColor=#1ba1e2;fontColor=#ffffff;strokeColor=#006EAF;" vertex="1" parent="1">
          <mxGeometry x="260" y="200" width="5" height="280" as="geometry" />
        </mxCell>
        <mxCell id="qk_mOwnxizorP-l7VWMu-9" value="stack:Stack" style="rounded=0;whiteSpace=wrap;html=1;fillColor=#1ba1e2;fontColor=#ffffff;strokeColor=#006EAF;" vertex="1" parent="1">
          <mxGeometry x="450" y="120" width="120" height="60" as="geometry" />
        </mxCell>
        <mxCell id="qk_mOwnxizorP-l7VWMu-10" value="" style="endArrow=none;dashed=1;html=1;startArrow=none;rounded=0;" edge="1" parent="1" source="qk_mOwnxizorP-l7VWMu-12">
          <mxGeometry width="50" height="50" relative="1" as="geometry">
            <mxPoint x="524.5" y="730" as="sourcePoint" />
            <mxPoint x="524.5" y="190" as="targetPoint" />
          </mxGeometry>
        </mxCell>
        <mxCell id="qk_mOwnxizorP-l7VWMu-11" value="" style="endArrow=none;dashed=1;html=1;rounded=0;" edge="1" parent="1" target="qk_mOwnxizorP-l7VWMu-12">
          <mxGeometry width="50" height="50" relative="1" as="geometry">
            <mxPoint x="523" y="500" as="sourcePoint" />
            <mxPoint x="524.5" y="190" as="targetPoint" />
          </mxGeometry>
        </mxCell>
        <mxCell id="qk_mOwnxizorP-l7VWMu-12" value="" style="html=1;points=[];perimeter=orthogonalPerimeter;fillColor=#1ba1e2;fontColor=#ffffff;strokeColor=#006EAF;" vertex="1" parent="1">
          <mxGeometry x="520" y="220" width="5" height="160" as="geometry" />
        </mxCell>
        <mxCell id="qk_mOwnxizorP-l7VWMu-13" value="1.1: isEmpty()&amp;nbsp;" style="text;html=1;strokeColor=none;fillColor=none;align=left;verticalAlign=middle;whiteSpace=wrap;rounded=0;" vertex="1" parent="1">
          <mxGeometry x="265" y="210" width="195" height="30" as="geometry" />
        </mxCell>
        <mxCell id="qk_mOwnxizorP-l7VWMu-14" value="1.2: drop(): NumeroComplesso" style="text;html=1;strokeColor=none;fillColor=none;align=left;verticalAlign=middle;whiteSpace=wrap;rounded=0;" vertex="1" parent="1">
          <mxGeometry x="265" y="270" width="195" height="30" as="geometry" />
        </mxCell>
        <mxCell id="qk_mOwnxizorP-l7VWMu-15" value="" style="endArrow=classic;html=1;rounded=0;exitX=1.083;exitY=0.504;exitDx=0;exitDy=0;exitPerimeter=0;" edge="1" parent="1">
          <mxGeometry width="50" height="50" relative="1" as="geometry">
            <mxPoint x="265.4150000000001" y="290" as="sourcePoint" />
            <mxPoint x="510" y="290" as="targetPoint" />
          </mxGeometry>
        </mxCell>
        <mxCell id="qk_mOwnxizorP-l7VWMu-16" value="alt" style="shape=umlFrame;whiteSpace=wrap;html=1;pointerEvents=0;" vertex="1" parent="1">
          <mxGeometry x="90" y="260" width="479" height="230" as="geometry" />
        </mxCell>
        <mxCell id="qk_mOwnxizorP-l7VWMu-17" value="[!isEmpty()]" style="text;html=1;align=center;verticalAlign=middle;resizable=0;points=[];autosize=1;strokeColor=none;fillColor=none;" vertex="1" parent="1">
          <mxGeometry x="150" y="260" width="80" height="30" as="geometry" />
        </mxCell>
        <mxCell id="qk_mOwnxizorP-l7VWMu-18" value="" style="endArrow=none;dashed=1;html=1;dashPattern=1 3;strokeWidth=2;rounded=0;" edge="1" parent="1">
          <mxGeometry width="50" height="50" relative="1" as="geometry">
            <mxPoint x="83.75" y="410.34000000000003" as="sourcePoint" />
            <mxPoint x="575.25" y="410" as="targetPoint" />
          </mxGeometry>
        </mxCell>
        <mxCell id="qk_mOwnxizorP-l7VWMu-19" value="[else]" style="text;html=1;align=center;verticalAlign=middle;resizable=0;points=[];autosize=1;strokeColor=none;fillColor=none;" vertex="1" parent="1">
          <mxGeometry x="90" y="410" width="50" height="30" as="geometry" />
        </mxCell>
        <mxCell id="qk_mOwnxizorP-l7VWMu-20" value="&lt;span style=&quot;color: rgb(240, 240, 240); font-family: Helvetica; font-size: 12px; font-style: normal; font-variant-ligatures: normal; font-variant-caps: normal; font-weight: 400; letter-spacing: normal; orphans: 2; text-align: left; text-indent: 0px; text-transform: none; widows: 2; word-spacing: 0px; -webkit-text-stroke-width: 0px; background-color: rgb(27, 29, 30); text-decoration-thickness: initial; text-decoration-style: initial; text-decoration-color: initial; float: none; display: inline !important;&quot;&gt;1.2: errorHandler(NoValueInStackToOperate)&lt;/span&gt;" style="text;whiteSpace=wrap;html=1;" vertex="1" parent="1">
          <mxGeometry x="265" y="420" width="245" height="20" as="geometry" />
        </mxCell>
        <mxCell id="qk_mOwnxizorP-l7VWMu-21" value="" style="html=1;verticalAlign=bottom;labelBackgroundColor=none;endArrow=block;endFill=1;rounded=0;" edge="1" parent="1">
          <mxGeometry width="160" relative="1" as="geometry">
            <mxPoint x="354.99999999999994" y="449.52" as="sourcePoint" />
            <mxPoint x="264.99999999999994" y="449.52" as="targetPoint" />
          </mxGeometry>
        </mxCell>
        <mxCell id="qk_mOwnxizorP-l7VWMu-22" value="" style="endArrow=none;html=1;rounded=0;" edge="1" parent="1">
          <mxGeometry width="50" height="50" relative="1" as="geometry">
            <mxPoint x="264.99999999999994" y="439.99999999999994" as="sourcePoint" />
            <mxPoint x="354.99999999999994" y="439.99999999999994" as="targetPoint" />
          </mxGeometry>
        </mxCell>
        <mxCell id="qk_mOwnxizorP-l7VWMu-23" value="" style="endArrow=none;html=1;rounded=0;" edge="1" parent="1">
          <mxGeometry width="50" height="50" relative="1" as="geometry">
            <mxPoint x="354.99999999999994" y="448.8299999999999" as="sourcePoint" />
            <mxPoint x="355" y="440" as="targetPoint" />
            <Array as="points" />
          </mxGeometry>
        </mxCell>
        <mxCell id="qk_mOwnxizorP-l7VWMu-24" value="" style="endArrow=classic;html=1;rounded=0;exitX=1.083;exitY=0.504;exitDx=0;exitDy=0;exitPerimeter=0;" edge="1" parent="1">
          <mxGeometry width="50" height="50" relative="1" as="geometry">
            <mxPoint x="265.4150000000001" y="240" as="sourcePoint" />
            <mxPoint x="509.99999999999994" y="240" as="targetPoint" />
          </mxGeometry>
        </mxCell>
        <mxCell id="qk_mOwnxizorP-l7VWMu-25" value="" style="endArrow=classic;html=1;rounded=0;exitX=1.083;exitY=0.504;exitDx=0;exitDy=0;exitPerimeter=0;" edge="1" parent="1">
          <mxGeometry width="50" height="50" relative="1" as="geometry">
            <mxPoint x="509.99999999999994" y="249.99999999999997" as="sourcePoint" />
            <mxPoint x="265.4150000000001" y="249.99999999999997" as="targetPoint" />
          </mxGeometry>
        </mxCell>
        <mxCell id="qk_mOwnxizorP-l7VWMu-26" value=":Calculatore" style="rounded=0;whiteSpace=wrap;html=1;fillColor=#1ba1e2;fontColor=#ffffff;strokeColor=#006EAF;" vertex="1" parent="1">
          <mxGeometry x="640" y="120" width="120" height="60" as="geometry" />
        </mxCell>
        <mxCell id="qk_mOwnxizorP-l7VWMu-27" value="" style="endArrow=classic;html=1;rounded=0;exitX=1.083;exitY=0.504;exitDx=0;exitDy=0;exitPerimeter=0;" edge="1" parent="1">
          <mxGeometry width="50" height="50" relative="1" as="geometry">
            <mxPoint x="510" y="299.43" as="sourcePoint" />
            <mxPoint x="265.4150000000001" y="299.43" as="targetPoint" />
          </mxGeometry>
        </mxCell>
        <mxCell id="qk_mOwnxizorP-l7VWMu-28" value="" style="endArrow=none;dashed=1;html=1;startArrow=none;rounded=0;" edge="1" parent="1" source="qk_mOwnxizorP-l7VWMu-30">
          <mxGeometry width="50" height="50" relative="1" as="geometry">
            <mxPoint x="702.5" y="730" as="sourcePoint" />
            <mxPoint x="702.5" y="190" as="targetPoint" />
          </mxGeometry>
        </mxCell>
        <mxCell id="qk_mOwnxizorP-l7VWMu-29" value="" style="endArrow=none;dashed=1;html=1;rounded=0;" edge="1" parent="1" target="qk_mOwnxizorP-l7VWMu-30">
          <mxGeometry width="50" height="50" relative="1" as="geometry">
            <mxPoint x="701" y="500" as="sourcePoint" />
            <mxPoint x="702.5" y="190" as="targetPoint" />
          </mxGeometry>
        </mxCell>
        <mxCell id="qk_mOwnxizorP-l7VWMu-30" value="" style="html=1;points=[];perimeter=orthogonalPerimeter;fillColor=#1ba1e2;fontColor=#ffffff;strokeColor=#006EAF;" vertex="1" parent="1">
          <mxGeometry x="698" y="340" width="5" height="10" as="geometry" />
        </mxCell>
        <mxCell id="qk_mOwnxizorP-l7VWMu-31" value="" style="endArrow=classic;html=1;rounded=0;exitX=1.083;exitY=0.504;exitDx=0;exitDy=0;exitPerimeter=0;" edge="1" parent="1">
          <mxGeometry width="50" height="50" relative="1" as="geometry">
            <mxPoint x="265.4150000000001" y="340" as="sourcePoint" />
            <mxPoint x="690" y="340" as="targetPoint" />
          </mxGeometry>
        </mxCell>
        <mxCell id="qk_mOwnxizorP-l7VWMu-32" value="1.3: invertSign(NumeroComplesso): NumeroComplesso" style="text;html=1;strokeColor=none;fillColor=none;align=left;verticalAlign=middle;whiteSpace=wrap;rounded=0;" vertex="1" parent="1">
          <mxGeometry x="265" y="310" width="195" height="30" as="geometry" />
        </mxCell>
        <mxCell id="qk_mOwnxizorP-l7VWMu-33" value="" style="endArrow=classic;html=1;rounded=0;exitX=1.083;exitY=0.504;exitDx=0;exitDy=0;exitPerimeter=0;" edge="1" parent="1">
          <mxGeometry width="50" height="50" relative="1" as="geometry">
            <mxPoint x="689.58" y="344.71" as="sourcePoint" />
            <mxPoint x="264.99500000000006" y="344.71" as="targetPoint" />
          </mxGeometry>
        </mxCell>
        <mxCell id="qk_mOwnxizorP-l7VWMu-34" value="1.2: add(): NumeroComplesso" style="text;html=1;strokeColor=none;fillColor=none;align=left;verticalAlign=middle;whiteSpace=wrap;rounded=0;" vertex="1" parent="1">
          <mxGeometry x="265" y="360" width="195" height="30" as="geometry" />
        </mxCell>
        <mxCell id="qk_mOwnxizorP-l7VWMu-35" value="" style="endArrow=classic;html=1;rounded=0;exitX=1.083;exitY=0.504;exitDx=0;exitDy=0;exitPerimeter=0;" edge="1" parent="1">
          <mxGeometry width="50" height="50" relative="1" as="geometry">
            <mxPoint x="265.4150000000001" y="380" as="sourcePoint" />
            <mxPoint x="510" y="380" as="targetPoint" />
          </mxGeometry>
        </mxCell>
      </root>
    </mxGraphModel>
  </diagram>
</mxfile>
